<svg width="99" height="33" viewBox="0 0 99 33" fill="none" xmlns="http://www.w3.org/2000/svg">
<path d="M16.4377 6.45703H21.1707L13.9624 19.1008V25.4092H9.50134V19.1008L2.29297 6.45703H7.02601L11.7319 15.0667L16.4377 6.45703Z" fill="#141414"/>
<path d="M26.916 25.707C24.8487 25.707 23.135 25.0663 21.7749 23.7847C20.4148 22.4852 19.7348 20.7975 19.7348 18.7218C19.7348 16.6641 20.4058 14.9855 21.7477 13.6859C23.1078 12.3864 24.7852 11.7366 26.78 11.7366C28.7385 11.7366 30.3615 12.3503 31.649 13.5776C32.9365 14.787 33.5803 16.3844 33.5803 18.3698C33.5803 18.7308 33.5531 19.1821 33.4987 19.7236H24.1142C24.2593 20.5719 24.5766 21.2127 25.0663 21.6459C25.574 22.079 26.1815 22.2956 26.8888 22.2956C27.4872 22.2956 28.004 22.1512 28.4392 21.8624C28.8745 21.5556 29.1465 21.1495 29.2553 20.6441L33.0363 21.6459C32.6736 22.9815 31.9301 23.9923 30.8058 24.6782C29.6996 25.3641 28.403 25.707 26.916 25.707ZM24.2502 17.0161H29.4185C29.3097 16.5288 29.0195 16.1046 28.548 15.7436C28.0947 15.3646 27.5144 15.175 26.8072 15.175C25.5378 15.175 24.6854 15.7887 24.2502 17.0161Z" fill="#141414"/>
<path d="M48.0429 21.9437C48.188 21.9437 48.3966 21.8985 48.6686 21.8083V25.4634C48.2878 25.6078 47.7528 25.68 47.0637 25.68C45.3228 25.68 44.1441 25.1926 43.5275 24.2179C42.5845 25.1926 41.2335 25.68 39.4745 25.68C38.0963 25.68 36.972 25.319 36.1015 24.597C35.2492 23.875 34.8231 22.8823 34.8231 21.6188C34.8231 20.4455 35.213 19.4979 35.9927 18.7759C36.7725 18.054 37.8243 17.6298 39.1481 17.5034L43.0379 17.1515V16.8807C43.0379 16.3573 42.8565 15.9421 42.4939 15.6353C42.1312 15.3104 41.6688 15.148 41.1066 15.148C40.0911 15.148 39.4836 15.6353 39.2841 16.61L35.3943 16.0685C35.63 14.5523 36.301 13.4513 37.4072 12.7654C38.5315 12.0795 39.8735 11.7366 41.433 11.7366C43.2827 11.7366 44.7334 12.1788 45.7852 13.0632C46.8551 13.9296 47.3901 15.166 47.3901 16.7724V21.2127C47.3901 21.7 47.6077 21.9437 48.0429 21.9437ZM43.0379 20.1568V19.8589L40.481 20.1568C40.0457 20.2109 39.7012 20.3553 39.4473 20.5899C39.1934 20.8065 39.0665 21.0683 39.0665 21.3751C39.0665 21.7361 39.2206 22.0159 39.5289 22.2144C39.8553 22.413 40.2633 22.5032 40.753 22.4852C41.4058 22.4491 41.9498 22.2325 42.3851 21.8354C42.8203 21.4383 43.0379 20.8787 43.0379 20.1568Z" fill="#141414"/>
<path d="M58.4558 11.7366C59.979 11.7366 61.2212 12.1788 62.1824 13.0632C63.1616 13.9477 63.6512 15.1841 63.6512 16.7724V25.4092H59.299V18.0991C59.299 17.2868 59.0995 16.6822 58.7006 16.2851C58.3016 15.8699 57.7576 15.6624 57.0685 15.6624C56.3794 15.6624 55.8263 15.879 55.4092 16.3122C55.0103 16.7454 54.8108 17.3771 54.8108 18.2074V25.4092H50.4585V6.45703H54.8108V13.1174C55.6994 12.1968 56.9144 11.7366 58.4558 11.7366Z" fill="#141414"/>
<path d="M74.9432 12.0073H79.2954V25.4092H74.9432V24.2992C74.0546 25.2197 72.8396 25.68 71.2982 25.68C69.8475 25.68 68.6143 25.2197 67.5988 24.2992C66.6014 23.3606 66.1027 22.052 66.1027 20.3733V12.0073H70.455V19.4257C70.455 20.2019 70.6545 20.7885 71.0534 21.1856C71.4524 21.5646 71.9964 21.7541 72.6855 21.7541C73.3746 21.7541 73.9186 21.5376 74.3176 21.1044C74.7347 20.6712 74.9432 20.0394 74.9432 19.2091V12.0073Z" fill="#141414"/>
<path d="M90.0725 11.7366C91.9222 11.7366 93.4908 12.3954 94.7783 13.713C96.0659 15.0126 96.7096 16.6822 96.7096 18.7218C96.7096 20.7253 96.0749 22.3859 94.8055 23.7035C93.5361 25.0211 91.9675 25.68 90.0997 25.68C88.5039 25.68 87.1982 25.1926 86.1827 24.2179V25.4092H81.8305V6.45703H86.1827V13.1715C87.1801 12.2149 88.4767 11.7366 90.0725 11.7366ZM89.202 21.9166C90.0362 21.9166 90.7435 21.6278 91.3238 21.0502C91.9041 20.4546 92.1942 19.6784 92.1942 18.7218C92.1942 17.7471 91.9041 16.971 91.3238 16.3934C90.7616 15.7977 90.0544 15.4999 89.202 15.4999C88.3316 15.4999 87.6062 15.7977 87.0259 16.3934C86.4638 16.971 86.1827 17.7471 86.1827 18.7218C86.1827 19.6784 86.4638 20.4546 87.0259 21.0502C87.6062 21.6278 88.3316 21.9166 89.202 21.9166Z" fill="#141414"/>
</svg>
